<mxfile host="app.diagrams.net" modified="2022-07-15T18:47:52.415Z" agent="5.0 (Windows NT 10.0; Win64; x64) AppleWebKit/537.36 (KHTML, like Gecko) Chrome/103.0.0.0 Safari/537.36" etag="J-QWv8IJm-nWjmdlGIns" version="20.0.4" type="github">
  <diagram id="PT0-_fRx41knzHizGVie" name="Page-1">
    <mxGraphModel dx="1038" dy="489" grid="1" gridSize="10" guides="1" tooltips="1" connect="1" arrows="1" fold="1" page="1" pageScale="1" pageWidth="850" pageHeight="1100" math="0" shadow="0">
      <root>
        <mxCell id="0" />
        <mxCell id="1" parent="0" />
        <mxCell id="Ajnr7vKaWQMxY4JWNJk2-1" value="Region" style="points=[[0,0],[0.25,0],[0.5,0],[0.75,0],[1,0],[1,0.25],[1,0.5],[1,0.75],[1,1],[0.75,1],[0.5,1],[0.25,1],[0,1],[0,0.75],[0,0.5],[0,0.25]];outlineConnect=0;gradientColor=none;html=1;whiteSpace=wrap;fontSize=12;fontStyle=0;container=1;pointerEvents=0;collapsible=0;recursiveResize=0;shape=mxgraph.aws4.group;grIcon=mxgraph.aws4.group_region;strokeColor=#147EBA;fillColor=none;verticalAlign=top;align=left;spacingLeft=30;fontColor=#147EBA;dashed=1;" vertex="1" parent="1">
          <mxGeometry x="100" y="60" width="720" height="470" as="geometry" />
        </mxCell>
        <mxCell id="Ajnr7vKaWQMxY4JWNJk2-2" value="VPC" style="points=[[0,0],[0.25,0],[0.5,0],[0.75,0],[1,0],[1,0.25],[1,0.5],[1,0.75],[1,1],[0.75,1],[0.5,1],[0.25,1],[0,1],[0,0.75],[0,0.5],[0,0.25]];outlineConnect=0;gradientColor=none;html=1;whiteSpace=wrap;fontSize=12;fontStyle=0;container=1;pointerEvents=0;collapsible=0;recursiveResize=0;shape=mxgraph.aws4.group;grIcon=mxgraph.aws4.group_vpc;strokeColor=#248814;fillColor=none;verticalAlign=top;align=left;spacingLeft=30;fontColor=#AAB7B8;dashed=0;" vertex="1" parent="Ajnr7vKaWQMxY4JWNJk2-1">
          <mxGeometry x="30" y="30" width="660" height="430" as="geometry" />
        </mxCell>
        <mxCell id="Ajnr7vKaWQMxY4JWNJk2-4" value="" style="rounded=1;arcSize=10;dashed=1;strokeColor=#F59D56;fillColor=none;gradientColor=none;dashPattern=8 4;strokeWidth=2;glass=0;" vertex="1" parent="Ajnr7vKaWQMxY4JWNJk2-2">
          <mxGeometry x="30" y="70" width="240" height="320" as="geometry" />
        </mxCell>
        <mxCell id="Ajnr7vKaWQMxY4JWNJk2-11" value="Private subnet" style="points=[[0,0],[0.25,0],[0.5,0],[0.75,0],[1,0],[1,0.25],[1,0.5],[1,0.75],[1,1],[0.75,1],[0.5,1],[0.25,1],[0,1],[0,0.75],[0,0.5],[0,0.25]];outlineConnect=0;gradientColor=none;html=1;whiteSpace=wrap;fontSize=12;fontStyle=0;container=1;pointerEvents=0;collapsible=0;recursiveResize=0;shape=mxgraph.aws4.group;grIcon=mxgraph.aws4.group_security_group;grStroke=0;strokeColor=#147EBA;fillColor=#E6F2F8;verticalAlign=top;align=left;spacingLeft=30;fontColor=#147EBA;dashed=0;" vertex="1" parent="Ajnr7vKaWQMxY4JWNJk2-2">
          <mxGeometry x="390" y="110" width="160" height="240" as="geometry" />
        </mxCell>
        <mxCell id="Ajnr7vKaWQMxY4JWNJk2-13" value="Private subnet" style="points=[[0,0],[0.25,0],[0.5,0],[0.75,0],[1,0],[1,0.25],[1,0.5],[1,0.75],[1,1],[0.75,1],[0.5,1],[0.25,1],[0,1],[0,0.75],[0,0.5],[0,0.25]];outlineConnect=0;gradientColor=none;html=1;whiteSpace=wrap;fontSize=12;fontStyle=0;container=0;pointerEvents=0;collapsible=0;recursiveResize=0;shape=mxgraph.aws4.group;grIcon=mxgraph.aws4.group_security_group;grStroke=0;strokeColor=#147EBA;fillColor=#E6F2F8;verticalAlign=top;align=left;spacingLeft=30;fontColor=#147EBA;dashed=0;" vertex="1" parent="Ajnr7vKaWQMxY4JWNJk2-2">
          <mxGeometry x="70" y="110" width="160" height="240" as="geometry" />
        </mxCell>
        <mxCell id="Ajnr7vKaWQMxY4JWNJk2-12" value="" style="rounded=1;arcSize=10;dashed=1;strokeColor=#F59D56;fillColor=none;gradientColor=none;dashPattern=8 4;strokeWidth=2;recursiveResize=0;" vertex="1" parent="Ajnr7vKaWQMxY4JWNJk2-2">
          <mxGeometry x="350" y="70" width="240" height="320" as="geometry" />
        </mxCell>
        <mxCell id="Ajnr7vKaWQMxY4JWNJk2-18" value="" style="sketch=0;outlineConnect=0;fontColor=#232F3E;gradientColor=none;fillColor=#4D27AA;strokeColor=none;dashed=0;verticalLabelPosition=bottom;verticalAlign=top;align=center;html=1;fontSize=12;fontStyle=0;aspect=fixed;pointerEvents=1;shape=mxgraph.aws4.router;glass=0;" vertex="1" parent="Ajnr7vKaWQMxY4JWNJk2-2">
          <mxGeometry x="270" y="150" width="78" height="78" as="geometry" />
        </mxCell>
        <mxCell id="Ajnr7vKaWQMxY4JWNJk2-19" value="" style="outlineConnect=0;dashed=0;verticalLabelPosition=bottom;verticalAlign=top;align=center;html=1;shape=mxgraph.aws3.ec2;fillColor=#F58534;gradientColor=none;glass=0;" vertex="1" parent="Ajnr7vKaWQMxY4JWNJk2-2">
          <mxGeometry x="112" y="190" width="76.5" height="93" as="geometry" />
        </mxCell>
        <mxCell id="Ajnr7vKaWQMxY4JWNJk2-20" value="" style="outlineConnect=0;dashed=0;verticalLabelPosition=bottom;verticalAlign=top;align=center;html=1;shape=mxgraph.aws3.ec2;fillColor=#F58534;gradientColor=none;glass=0;" vertex="1" parent="Ajnr7vKaWQMxY4JWNJk2-2">
          <mxGeometry x="431.75" y="190" width="76.5" height="93" as="geometry" />
        </mxCell>
        <mxCell id="Ajnr7vKaWQMxY4JWNJk2-22" value="AZ A" style="text;html=1;align=center;verticalAlign=middle;resizable=0;points=[];autosize=1;strokeColor=none;fillColor=none;" vertex="1" parent="Ajnr7vKaWQMxY4JWNJk2-2">
          <mxGeometry x="130" y="30" width="50" height="30" as="geometry" />
        </mxCell>
        <mxCell id="Ajnr7vKaWQMxY4JWNJk2-23" value="AZ B" style="text;html=1;align=center;verticalAlign=middle;resizable=0;points=[];autosize=1;strokeColor=none;fillColor=none;" vertex="1" parent="Ajnr7vKaWQMxY4JWNJk2-2">
          <mxGeometry x="458.25" y="30" width="50" height="30" as="geometry" />
        </mxCell>
        <mxCell id="Ajnr7vKaWQMxY4JWNJk2-17" value="" style="outlineConnect=0;dashed=0;verticalLabelPosition=bottom;verticalAlign=top;align=center;html=1;shape=mxgraph.aws3.internet_gateway;fillColor=#F58534;gradientColor=none;glass=0;" vertex="1" parent="Ajnr7vKaWQMxY4JWNJk2-1">
          <mxGeometry x="300" width="69" height="72" as="geometry" />
        </mxCell>
        <mxCell id="Ajnr7vKaWQMxY4JWNJk2-21" value="Internet Gateway" style="text;html=1;align=center;verticalAlign=middle;resizable=0;points=[];autosize=1;strokeColor=none;fillColor=none;" vertex="1" parent="1">
          <mxGeometry x="379.5" y="30" width="110" height="30" as="geometry" />
        </mxCell>
      </root>
    </mxGraphModel>
  </diagram>
</mxfile>
